<svg version="1" xmlns="http://www.w3.org/2000/svg" width="1365.333" height="1365.333" viewBox="0 0 1024.000000 1024.000000"><path d="M0 511.5V1023h1024V0H0v511.5zm187.3-90.2c12.5 32 33.5 85.6 46.6 119.2 19.8 50.7 24.1 61 25.7 61 1.6 0 9.5-19.4 48.4-119.2L354.5 363H418v310h-50V563c0-107.3 0-110-1.9-110-1 0-2.1.6-2.4 1.2-2.8 7.4-76 194.7-79.9 204.8l-5.4 13.5h-37.8L210.8 596c-59.2-151.8-55.4-142.5-57.7-142.8l-2.1-.3V673h-50V363h63.5l22.8 58.3zm343.8 50.2c18.5 59.4 35.8 114.6 38.3 122.7 3.8 12.2 5 14.8 6.5 14.8 1.6 0 2.5-1.9 4.8-9.3 1.6-5 18.9-60.4 38.4-122.9L654.5 363h30.3c18.6 0 30.2.4 30.2 1 0 .5-20.5 60.2-45.6 132.7-25.1 72.5-49.1 141.8-53.3 154.1l-7.6 22.2-32.4-.2-32.4-.3-1.4-4c-4.3-12-104.7-302.3-105.1-303.8-.4-1.6 1.3-1.7 29.9-1.5l30.3.3 33.7 108zM843 477v47h94v48h-94v94h-48v-94h-94v-48h94v-94h48v47z"/></svg>